<?xml version="1.0" encoding="UTF-8"?>
<svg version="1.1" xmlns="http://www.w3.org/2000/svg" width="620" height="565">
<path d="M0 0 C3.85579784 0.00258329 7.71159366 0.00016829 11.56739163 -0.00138617 C18.07219236 -0.003198 24.57698169 -0.00083511 31.08178067 0.00395441 C37.64298622 0.00873178 44.20416895 0.00881811 50.76537442 0.00395441 C71.67372422 -0.01092496 92.58147721 0.01294586 113.48957467 0.12341356 C115.53429757 0.13411407 117.57902315 0.14407679 119.62374997 0.15399408 C126.91298329 0.19209515 134.20132727 0.25258288 141.49000096 0.35140085 C143.60764102 0.37798651 145.72536827 0.3985164 147.8431313 0.41215372 C162.85705608 0.51876279 177.38954592 1.57526016 190.88720059 8.8843255 C191.54687833 9.23011652 192.20655606 9.57590754 192.88622403 9.93217707 C209.32396773 18.76356104 221.36228463 31.07894212 230.57470059 47.1343255 C231.32880216 48.44723566 231.32880216 48.44723566 232.09813809 49.78666925 C238.04831746 60.91170159 240.54257225 72.74113289 241.12889981 85.22758722 C241.17101024 86.10417427 241.21312066 86.98076132 241.25650716 87.88391161 C241.683001 97.47007855 241.71986361 107.04819289 241.70751309 116.642138 C241.7081903 118.54666897 241.70916374 120.45119985 241.71041226 122.35573053 C241.71187186 126.31709361 241.70979293 130.27843387 241.70507169 134.23979425 C241.69939821 139.23498837 241.70275652 144.23012903 241.70849156 149.22532129 C241.7431 184.25826175 241.7431 184.25826175 241.19970059 200.298388 C241.17038449 201.28050257 241.14106839 202.26261713 241.11086392 203.27449274 C240.31028138 222.53101485 233.21906961 239.66185494 220.57470059 254.1343255 C219.79739591 255.14366144 219.79739591 255.14366144 219.00438809 256.173388 C206.63924758 271.76962051 184.91806612 281.87718551 165.52001309 284.5562005 C163.8586034 284.71993363 162.19433413 284.85934732 160.52782559 284.95854425 C158.35984034 285.07821393 158.35984034 285.07821393 155.57470059 286.1343255 C154.23472932 285.8287672 152.90181252 285.49162487 151.57470059 285.1343255 C149.86904592 285.02008384 148.15912924 284.95958243 146.44970059 284.9468255 C145.58087247 284.93264582 144.71204434 284.91846613 143.81688809 284.90385675 C141.37140334 284.91688945 141.37140334 284.91688945 139.57470059 287.1343255 C139.24470059 286.4743255 138.91470059 285.8143255 138.57470059 285.1343255 C134.44971521 285.10540166 130.32475574 285.08755284 126.19970059 285.0718255 C124.43626309 285.05925714 124.43626309 285.05925714 122.63720059 285.04643488 C121.51571622 285.04321222 120.39423184 285.03998957 119.23876309 285.03666925 C118.20187345 285.03143244 117.1649838 285.02619562 116.09667325 285.02080011 C113.5787338 284.96291736 113.5787338 284.96291736 111.57470059 286.1343255 C110.20043531 286.21130717 108.82520008 286.27150235 107.44970059 286.3218255 C98.74555059 287.29358069 93.86098746 293.57112325 88.56713223 300.04789972 C84.09370673 305.64709355 79.81569225 311.39678475 75.54345059 317.1499505 C72.75607481 320.90162732 69.92709145 324.61940929 67.07470059 328.3218255 C66.30126309 329.32600519 65.52782559 330.33018488 64.73095059 331.36479425 C64.01938809 332.27873957 63.30782559 333.19268488 62.57470059 334.1343255 C61.88763028 335.03022394 61.20055997 335.92612238 60.49266934 336.84916925 C57.41236895 340.51918092 54.1695646 342.76430833 49.43798184 343.439013 C43.45451261 343.29282004 39.92782914 340.67835354 35.72704434 336.6030755 C26.57470059 326.10528739 26.57470059 326.10528739 26.57470059 321.1343255 C25.91470059 320.8043255 25.25470059 320.4743255 24.57470059 320.1343255 C23.61327481 318.46025324 23.61327481 318.46025324 22.62938809 316.31791925 C22.27489591 315.55414972 21.92040372 314.79038019 21.55516934 314.00346613 C21.00796231 312.79980402 21.00796231 312.79980402 20.44970059 311.5718255 C20.07716153 310.76551691 19.70462247 309.95920832 19.32079434 309.12846613 C18.39978047 307.13293607 17.48471009 305.13489191 16.57470059 303.1343255 C15.91470059 303.1343255 15.25470059 303.1343255 14.57470059 303.1343255 C13.57470059 300.1343255 13.57470059 300.1343255 13.57470059 297.1343255 C10.4868178 291.32910586 6.56450482 288.41806507 0.43798184 286.4468255 C-4.88582122 285.10890641 -9.96292933 284.93689044 -15.42529941 285.1343255 C-46.58835709 285.1343255 -70.27856639 280.96874947 -94.42529941 260.1343255 C-110.7886268 243.63435237 -119.34207437 222.95724307 -120.01904941 199.93510675 C-120.07788806 198.0756769 -120.07788806 198.0756769 -120.13791537 196.1786828 C-120.64526904 178.76191884 -120.57580929 161.33281918 -120.5556705 143.91044855 C-120.54993108 138.91448551 -120.55329665 133.91857575 -120.55924296 128.92261457 C-120.56288847 125.00077154 -120.56169257 121.07894078 -120.55911517 117.15709734 C-120.55845914 115.31590185 -120.55922659 113.47470515 -120.56159472 111.63351107 C-120.5708103 102.47693898 -120.46786914 93.34841643 -119.97168612 84.20366144 C-119.93191716 83.46738425 -119.8921482 82.73110706 -119.85117412 81.97251844 C-119.53171465 76.6831592 -118.87273397 71.66703344 -117.42529941 66.5718255 C-117.10263095 65.40659357 -117.10263095 65.40659357 -116.77344394 64.2178216 C-112.51196049 49.87422101 -104.7706968 37.82396555 -94.42529941 27.1343255 C-93.55002597 26.22940363 -92.67475253 25.32448175 -91.77295566 24.392138 C-81.92042639 14.8723667 -70.20977705 8.86998412 -57.42529941 4.1343255 C-56.65444003 3.82623957 -55.88358066 3.51815363 -55.08936191 3.20073175 C-50.15285604 1.44010082 -45.27774066 0.8399151 -40.06958652 0.56450129 C-38.91814229 0.50302754 -38.91814229 0.50302754 -37.74343657 0.44031191 C-25.17411462 -0.14418424 -12.58001961 -0.01112433 0 0 Z " fill="#886BE5" transform="translate(248.42529940605164,4.8656744956970215)"/>
<path d="M0 0 C1.04837036 -0.00143509 1.04837036 -0.00143509 2.11791992 -0.00289917 C3.59391368 -0.00357891 5.06991045 -0.00173895 6.54589844 0.00244141 C8.80410481 0.00779261 11.0621123 0.00248952 13.3203125 -0.00390625 C14.75520877 -0.00324543 16.19010492 -0.00196419 17.625 0 C19.58373047 0.00169189 19.58373047 0.00169189 21.58203125 0.00341797 C24.8125 0.1328125 24.8125 0.1328125 27.8125 1.1328125 C28.72203064 2.93733215 28.72203064 2.93733215 29.48803711 5.34301758 C29.78435532 6.25259216 30.08067352 7.16216675 30.38597107 8.0993042 C30.70074905 9.10680725 31.01552704 10.1143103 31.33984375 11.15234375 C31.68116837 12.20987854 32.02249298 13.26741333 32.37416077 14.35699463 C33.1183764 16.66714943 33.85709464 18.97908054 34.59106445 21.29251099 C36.36187374 26.87385229 38.16417577 32.44498523 39.96300125 38.01734734 C40.59685734 39.98268387 41.22915822 41.94851542 41.86117554 43.91444397 C46.51556892 58.37978158 51.32654756 72.79243964 56.14644241 87.20330429 C57.2444451 90.48715003 58.34077605 93.77155373 59.43725586 97.0559082 C61.28383949 102.58606299 63.13197293 108.11569746 64.98095703 113.64505005 C65.92646055 116.47375311 66.87016239 119.30305321 67.8125 122.1328125 C68.05258789 121.38225586 68.29267578 120.63169922 68.54003906 119.85839844 C73.68841005 103.78366344 78.92711998 87.74396439 84.30212402 71.74359131 C87.46186185 62.32602497 90.54602393 52.88744364 93.546875 43.41796875 C93.86098328 42.42684586 94.17509155 41.43572296 94.49871826 40.41456604 C96.03698175 35.55432221 97.56859596 30.69207137 99.09277344 25.82739258 C104.45798273 8.76661955 104.45798273 8.76661955 107.8125 1.1328125 C119.48803107 0.50441289 131.11658812 -0.04410045 142.8125 0.1328125 C142.26830149 5.4910535 141.33058884 10.17841011 139.58422852 15.30371094 C139.35782873 15.9756675 139.13142895 16.64762405 138.89816856 17.33994293 C138.14863093 19.55975607 137.38866711 21.77585486 136.62890625 23.9921875 C136.08970231 25.58400585 135.55135704 27.17611528 135.0138092 28.76849365 C133.87169909 32.15026677 132.72627189 35.53089115 131.57891846 38.91088867 C128.9448454 46.68330123 126.36352926 54.47325632 123.77799606 62.26191711 C122.30177657 66.70669814 120.82161544 71.15016621 119.34179688 75.59375 C117.54230414 80.99807049 115.74324051 86.4025323 113.94604492 91.80761719 C106.35811689 114.62675477 98.66925716 137.40457322 90.8125 160.1328125 C75.6325 160.1328125 60.4525 160.1328125 44.8125 160.1328125 C36.78927648 138.35549151 36.78927648 138.35549151 34.15625 130.5078125 C33.85198593 129.608918 33.54772186 128.7100235 33.23423767 127.78388977 C32.59021633 125.88113332 31.94719156 123.97803928 31.30514526 122.07461548 C29.56537716 116.91863964 27.81641585 111.7657886 26.06640625 106.61328125 C25.71038834 105.56504684 25.35437042 104.51681244 24.98756409 103.43681335 C21.46624944 93.08598805 17.86566672 82.76348291 14.25 72.4453125 C8.93066572 57.26034208 3.68551751 42.051519 -1.5 26.8203125 C-1.82509552 25.86548981 -2.15019104 24.91066711 -2.48513794 23.9269104 C-7.96206798 7.83442026 -7.96206798 7.83442026 -10.1875 1.1328125 C-6.62442298 -0.05487984 -3.75984676 0.00324765 0 0 Z " fill="#FDFDFD" transform="translate(16.1875,397.8671875)"/>
<path d="M0 0 C3.14742068 2.52356532 6.10994379 5.18673272 9 8 C8.98839844 7.14535156 8.97679687 6.29070312 8.96484375 5.41015625 C8.95582031 4.30542969 8.94679688 3.20070313 8.9375 2.0625 C8.92589844 0.96035156 8.91429687 -0.14179688 8.90234375 -1.27734375 C9 -4 9 -4 10 -5 C12.29151417 -5.08790975 14.58572524 -5.10694038 16.87890625 -5.09765625 C17.90889992 -5.09553383 17.90889992 -5.09553383 18.95970154 -5.09336853 C21.16067801 -5.08775479 23.36155409 -5.07520007 25.5625 -5.0625 C27.05143083 -5.05748676 28.54036324 -5.05292355 30.02929688 -5.04882812 C33.68623075 -5.03778093 37.34310558 -5.02050713 41 -5 C41.15376413 10.36796264 41.30180104 25.73597298 41.4429636 41.10405636 C41.50863788 48.2392407 41.57620749 55.3743978 41.64819336 62.50952148 C41.71759334 69.3888587 41.78177196 76.26822852 41.84269524 83.14764595 C41.86686396 85.77883124 41.89281439 88.41000077 41.92053413 91.04115105 C41.95891221 94.71222336 41.9910868 98.38329951 42.02172852 102.05444336 C42.03467453 103.15423523 42.04762054 104.2540271 42.06095886 105.387146 C42.0715181 106.87851326 42.0715181 106.87851326 42.08229065 108.40000916 C42.09058679 109.26925994 42.09888292 110.13851072 42.10743046 111.03410244 C42 113 42 113 41 114 C38.70848583 114.08790975 36.41427476 114.10694038 34.12109375 114.09765625 C33.09110008 114.09553383 33.09110008 114.09553383 32.04029846 114.09336853 C29.83932199 114.08775479 27.63844591 114.07520007 25.4375 114.0625 C23.94856917 114.05748676 22.45963676 114.05292355 20.97070312 114.04882812 C17.31376925 114.03778093 13.65689442 114.02050713 10 114 C9 112 9 112 9.0625 109 C9.34381131 105.88232786 9.34381131 105.88232786 7 104 C6.07380859 104.68835938 6.07380859 104.68835938 5.12890625 105.390625 C-7.99048482 114.89569372 -21.06868617 118.44672885 -37.22216797 116.14794922 C-51.9164918 113.65038134 -64.2306991 105.6750858 -73 93.75 C-80.90284745 81.48896462 -83.18818621 69.21580015 -83.25 54.875 C-83.2809375 53.11542969 -83.2809375 53.11542969 -83.3125 51.3203125 C-83.38622793 34.73152761 -77.62231718 20.00135497 -66.19165039 7.99438477 C-48.67010509 -9.55109298 -21.2016912 -13.58287209 0 0 Z M-41 28 C-48.18829072 35.85826733 -51.62978253 44.87756727 -51.21484375 55.5 C-50.33709382 65.71381736 -47.47347045 74.60441556 -39.375 81.4375 C-32.07207305 86.33393864 -23.28917847 87.80105587 -14.6640625 86.6328125 C-6.71249435 84.74402359 0.08550004 80.56138027 5 74 C10.51641644 64.21172449 11.59170461 53.08571249 8.8203125 42.1953125 C5.67308311 33.77272718 -0.29596727 27.66084323 -8.3125 23.75 C-19.28689458 19.23544972 -31.5675102 20.52750808 -41 28 Z " fill="#FDFDFD" transform="translate(240,444)"/>
<path d="M0 0 C2.47956098 1.89429524 4.7157787 3.86474965 7 6 C7.06058594 5.28972656 7.12117188 4.57945312 7.18359375 3.84765625 C7.30927734 2.46900391 7.30927734 2.46900391 7.4375 1.0625 C7.55931641 -0.31228516 7.55931641 -0.31228516 7.68359375 -1.71484375 C8 -4 8 -4 9 -5 C11.29151417 -5.08790975 13.58572524 -5.10694038 15.87890625 -5.09765625 C16.90889992 -5.09553383 16.90889992 -5.09553383 17.95970154 -5.09336853 C20.16067801 -5.08775479 22.36155409 -5.07520007 24.5625 -5.0625 C26.05143083 -5.05748676 27.54036324 -5.05292355 29.02929688 -5.04882812 C32.68623075 -5.03778093 36.34310558 -5.02050713 40 -5 C41.20889154 -2.58221691 41.12578867 -1.06370056 41.12698364 1.6375885 C41.13121338 3.10360756 41.13121338 3.10360756 41.13552856 4.59924316 C41.13249222 6.21312927 41.13249222 6.21312927 41.12939453 7.85961914 C41.13202301 9.55476906 41.13202301 9.55476906 41.13470459 11.28416443 C41.13912024 15.03451047 41.1361863 18.78480969 41.1328125 22.53515625 C41.13348557 25.13065093 41.13445563 27.72614555 41.13571167 30.32164001 C41.13718822 35.76659807 41.13513005 41.21153838 41.13037109 46.65649414 C41.12492598 52.95946814 41.12669343 59.2624098 41.1321975 65.56538302 C41.13727403 71.62022225 41.13674731 77.6750456 41.13381577 83.72988701 C41.1331463 86.31081586 41.13397561 88.89174552 41.13629532 91.47267342 C41.13882009 95.07173002 41.13498384 98.67072352 41.12939453 102.26977539 C41.13141876 103.34772369 41.13344299 104.425672 41.13552856 105.5362854 C41.13270874 106.51081161 41.12988892 107.48533783 41.12698364 108.48939514 C41.1264181 109.76725183 41.1264181 109.76725183 41.12584114 111.07092381 C41 113 41 113 40 114 C37.6243148 114.0883967 35.27791326 114.11530305 32.90234375 114.09765625 C31.83905602 114.09553383 31.83905602 114.09553383 30.75428772 114.09336853 C28.48198288 114.08775443 26.20977525 114.07519963 23.9375 114.0625 C22.40039204 114.05748681 20.86328255 114.05292359 19.32617188 114.04882812 C15.55074358 114.03778042 11.77538829 114.02050641 8 114 C7.67 110.04 7.34 106.08 7 102 C5.329375 103.5778125 5.329375 103.5778125 3.625 105.1875 C-8.67932827 115.92661336 -22.73392209 116.99414422 -38.39355469 116.24267578 C-44.13083149 115.7085007 -48.95590731 113.77535231 -54 111 C-54.81339844 110.55398438 -55.62679688 110.10796875 -56.46484375 109.6484375 C-69.67342414 101.56523788 -78.71933917 88.92912415 -82.5 74 C-86.56562997 55.62937571 -85.32751644 35.87530345 -75.62890625 19.4921875 C-66.80103012 5.98574872 -56.29818141 -2.86138301 -40.375 -6.875 C-26.50862013 -9.63840666 -12.07304065 -7.7198839 0 0 Z M-39 26 C-40.299375 26.8353125 -40.299375 26.8353125 -41.625 27.6875 C-48.44434112 34.32738477 -52.19139715 41.89746718 -52.38061523 51.42041016 C-52.35384474 62.52667158 -50.99031568 70.89855956 -43.03515625 79.2421875 C-35.95192202 85.36014413 -28.22565415 87.20028557 -19 87 C-11.80576946 86.44031918 -5.60798159 83.49400222 0 79 C7.60359528 70.09517088 9.64307753 60.47111276 9 49 C8.18587991 41.04564631 4.92667876 34.72385445 -0.890625 29.20703125 C-11.19067769 20.99537507 -27.70335747 17.70809103 -39 26 Z " fill="#FDFDFD" transform="translate(384,444)"/>
<path d="M0 0 C2.6929656 1.98295584 4.8887191 3.98743876 7.07421875 6.52734375 C7.63882813 7.17445313 8.2034375 7.8215625 8.78515625 8.48828125 C16.69627876 18.00165642 19.17484365 27.48284351 19.29541016 39.7199707 C19.31266899 40.91856468 19.31266899 40.91856468 19.33027649 42.14137268 C19.36677722 44.76608538 19.39653017 47.39082224 19.42578125 50.015625 C19.44890912 51.84311751 19.47229956 53.67060671 19.49594116 55.49809265 C19.54427897 59.31844151 19.58923394 63.13881153 19.63183594 66.95922852 C19.68686487 71.86680869 19.75067123 76.77422954 19.81701088 81.68166828 C19.86694582 85.45012919 19.9121246 89.21863549 19.95585251 92.98717308 C19.97747135 94.79778091 20.00062653 96.60837105 20.02531815 98.41893959 C20.05901621 100.93982887 20.08629319 103.46070601 20.11181641 105.98168945 C20.12319138 106.73542847 20.13456635 107.48916748 20.14628601 108.26574707 C20.16065954 110.01971824 20.1231028 111.773995 20.07421875 113.52734375 C19.07421875 114.52734375 19.07421875 114.52734375 16.02319336 114.64086914 C14.67430604 114.64071009 13.32541261 114.63501987 11.9765625 114.625 C10.91327477 114.62287758 10.91327477 114.62287758 9.82850647 114.62071228 C7.55620163 114.61509818 5.283994 114.60254338 3.01171875 114.58984375 C1.47461079 114.58483056 -0.0624987 114.58026734 -1.59960938 114.57617188 C-5.37503767 114.56512417 -9.15039296 114.54785016 -12.92578125 114.52734375 C-12.92356064 113.82212585 -12.92134003 113.11690796 -12.91905212 112.39031982 C-12.89900372 105.73987188 -12.88378389 99.08943238 -12.87396908 92.43896103 C-12.86875355 89.02000386 -12.86168005 85.60107169 -12.8503418 82.18212891 C-12.83738455 78.25032858 -12.83254203 74.31853833 -12.828125 70.38671875 C-12.82296371 69.16055847 -12.81780243 67.93439819 -12.81248474 66.67108154 C-12.81237144 64.95976044 -12.81237144 64.95976044 -12.81225586 63.21386719 C-12.81003525 62.21015076 -12.80781464 61.20643433 -12.80552673 60.17230225 C-12.91428538 57.78019169 -13.31860139 55.82679155 -13.92578125 53.52734375 C-13.89514751 51.11006313 -13.82875079 48.69312505 -13.73828125 46.27734375 C-13.60424435 39.92629245 -14.51309187 35.9049149 -17.92578125 30.52734375 C-18.25578125 29.53734375 -18.58578125 28.54734375 -18.92578125 27.52734375 C-20.70807061 26.38524558 -20.70807061 26.38524558 -22.92578125 25.52734375 C-23.69019531 25.19476563 -24.45460938 24.8621875 -25.2421875 24.51953125 C-33.24863571 21.55935971 -41.1943941 22.06248659 -48.92578125 25.52734375 C-54.98247988 29.22865958 -57.1689124 33.85587286 -58.92578125 40.52734375 C-59.51430231 46.2507715 -59.5321436 51.94236703 -59.53515625 57.69140625 C-59.55016162 59.33622852 -59.56689366 60.98103586 -59.58526611 62.62582397 C-59.62868781 66.92308297 -59.64888233 71.22013881 -59.66400146 75.51757812 C-59.68713036 80.69078097 -59.73953052 85.8637626 -59.78694153 91.03678894 C-59.85547029 98.86703114 -59.88714926 106.69664025 -59.92578125 114.52734375 C-70.81578125 114.52734375 -81.70578125 114.52734375 -92.92578125 114.52734375 C-92.94832873 99.1593266 -92.96676069 83.79131688 -92.97759342 68.42328739 C-92.98275626 61.28812634 -92.98979873 54.15297627 -93.0012207 47.01782227 C-93.012228 40.13844638 -93.01805742 33.25908194 -93.02065849 26.3796978 C-93.02251331 23.7485276 -93.02613498 21.11735806 -93.03151131 18.4861927 C-93.0387176 14.81508125 -93.03977237 11.14401772 -93.03930664 7.47290039 C-93.04290192 6.37310852 -93.04649719 5.27331665 -93.05020142 4.14019775 C-93.04813942 2.64883049 -93.04813942 2.64883049 -93.04603577 1.12733459 C-93.04695756 0.25808381 -93.04787935 -0.61116697 -93.04882908 -1.50675869 C-92.92578125 -3.47265625 -92.92578125 -3.47265625 -91.92578125 -4.47265625 C-89.55009605 -4.56105295 -87.20369451 -4.5879593 -84.828125 -4.5703125 C-83.76483727 -4.56819008 -83.76483727 -4.56819008 -82.68006897 -4.56602478 C-80.40776413 -4.56041068 -78.1355565 -4.54785588 -75.86328125 -4.53515625 C-74.32617329 -4.53014306 -72.7890638 -4.52557984 -71.25195312 -4.52148438 C-67.47652483 -4.51043667 -63.70116954 -4.49316266 -59.92578125 -4.47265625 C-59.43078125 0.47734375 -59.43078125 0.47734375 -58.92578125 5.52734375 C-57.93578125 4.61984375 -56.94578125 3.71234375 -55.92578125 2.77734375 C-40.40355129 -10.39021659 -16.84296579 -11.09303222 0 0 Z " fill="#FDFDFD" transform="translate(540.92578125,443.47265625)"/>
<path d="M0 0 C10.23 0 20.46 0 31 0 C31.15297555 15.36797203 31.30180102 30.73597167 31.4429636 46.10405636 C31.50863788 53.2392407 31.57620749 60.3743978 31.64819336 67.50952148 C31.71759334 74.3888587 31.78177196 81.26822852 31.84269524 88.14764595 C31.86686396 90.77883124 31.89281439 93.41000077 31.92053413 96.04115105 C31.95891221 99.71222336 31.9910868 103.38329951 32.02172852 107.05444336 C32.03467453 108.15423523 32.04762054 109.2540271 32.06095886 110.387146 C32.06799835 111.38139084 32.07503784 112.37563568 32.08229065 113.40000916 C32.09058679 114.26925994 32.09888292 115.13851072 32.10743046 116.03410244 C32 118 32 118 31 119 C20.77 119 10.54 119 0 119 C0 79.73 0 40.46 0 0 Z " fill="#FDFDFD" transform="translate(583,439)"/>
<path d="M0 0 C4.83088938 3.04061861 9.18518628 7.8329026 10.9921875 13.25390625 C11.63225729 20.9242508 11.88862016 27.9687193 6.9921875 34.25390625 C2.27223415 39.25347769 -2.24285374 42.21654479 -9.1953125 42.69140625 C-15.69421118 42.50727079 -21.42824442 39.93791028 -25.9375 35.24609375 C-31.30161896 28.29070505 -31.91207575 21.93688858 -31.0078125 13.25390625 C-28.60888151 6.74990802 -23.62404685 2.30636359 -17.6953125 -1.05859375 C-11.74916443 -2.5797014 -5.69586365 -2.36755778 0 0 Z " fill="#FBFBFD" transform="translate(319.0078125,130.74609375)"/>
<path d="M0 0 C4.96678634 4.30454816 8.67686449 8.36703366 9.2734375 15.07421875 C9.4896041 22.7647612 9.356728 28.2085637 4 34 C-0.45179142 38.53336875 -4.46103441 40.79188807 -10.8125 41.3125 C-17.21521583 41.09586676 -22.08876234 39.15913255 -26.8125 34.8125 C-31.7562 29.42860754 -33.64510326 23.5795788 -33.34375 16.296875 C-32.30945254 9.38588741 -29.23742766 4.36725451 -23.71484375 0.15234375 C-16.43348201 -4.74059865 -7.5610057 -4.1693073 0 0 Z " fill="#FBFBFD" transform="translate(406,132)"/>
<path d="M0 0 C4.90446175 4.30772116 8.41186383 8.96971949 9.37109375 15.54296875 C9.55014524 22.67343113 8.37906383 28.24178274 4 34 C-1.28869761 38.55698638 -6.54184516 41.47670756 -13.68359375 41.33203125 C-19.30543879 40.52620186 -24.2088993 38.06609798 -27.93359375 33.76953125 C-32.60657394 26.90013831 -33.79310176 21.27091839 -33 13 C-30.96169168 5.80452603 -25.92712519 1.21530139 -19.5625 -2.375 C-12.82784981 -4.01759761 -6.10885598 -3.30622672 0 0 Z " fill="#FBFBFD" transform="translate(235,132)"/>
<path d="M0 0 C4.22321955 4.47917225 5.78577639 8.3649192 6.375 14.375 C5.92082113 19.91598221 4.38151325 24.70997192 0.51953125 28.8359375 C-3.59754334 32.09568077 -7.68774214 33.49859676 -12.9375 33.1875 C-19.19992875 32.16506265 -22.93123171 29.8621065 -26.84375 24.90625 C-30.00231554 19.94278986 -29.47602206 13.83450221 -28.9375 8.1875 C-26.22834568 2.56851326 -22.44513288 -0.73077601 -16.75 -3.1875 C-10.63150823 -4.19053144 -5.29443793 -3.26678085 0 0 Z " fill="#FCFDFD" transform="translate(609.9375,393.8125)"/>
<path d="M0 0 C2.29785498 3.6462078 2.24212309 6.72128966 2.22705078 10.97167969 C2.22734283 11.6647673 2.22763489 12.35785492 2.22793579 13.07194519 C2.22654608 15.35538392 2.21100206 17.6384935 2.1953125 19.921875 C2.19158109 21.50799379 2.18873472 23.09411489 2.18673706 24.68023682 C2.17911068 28.84940993 2.15947078 33.01844311 2.1373291 37.18756104 C2.11684921 41.44403185 2.10773076 45.70052534 2.09765625 49.95703125 C2.07622391 58.30475163 2.04210002 66.65235839 2 75 C1.01 75 0.02 75 -1 75 C-1.02565427 67.21192134 -1.04299254 59.42385383 -1.05493164 51.63574219 C-1.05934437 48.99412 -1.06670656 46.35255435 -1.07543945 43.7109375 C-1.12246208 29.1062625 -1.08946584 14.56960969 0 0 Z " fill="#A68FE3" transform="translate(129,81)"/>
<path d="M0 0 C0.33 0 0.66 0 1 0 C2.24756147 10.52696961 2.33374058 21.10200806 2.5625 31.6875 C2.60578082 33.56446097 2.64939784 35.44141422 2.69335938 37.31835938 C2.79945023 41.87882646 2.90098746 46.43937398 3 51 C2.34 51 1.68 51 1 51 C0.67 51.99 0.34 52.98 0 54 C-1.09633038 26.18644815 -1.09633038 26.18644815 -1.125 12.9375 C-1.12951172 12.08325439 -1.13402344 11.22900879 -1.13867188 10.34887695 C-1.12977882 6.7305161 -0.97702709 3.48168988 0 0 Z " fill="#9C84DE" transform="translate(129,163)"/>
<path d="M0 0 C0.99 0 1.98 0 3 0 C4.578125 2.30078125 4.578125 2.30078125 6.25 5.3125 C9.32370952 10.41131877 11.27090265 12.4800354 17 14 C17 14.66 17 15.32 17 16 C19.64 16.66 22.28 17.32 25 18 C25.33 17.01 25.66 16.02 26 15 C26.9590625 14.7834375 26.9590625 14.7834375 27.9375 14.5625 C30.20311706 14.19895007 30.20311706 14.19895007 31.25 11.9375 C31.4975 11.298125 31.745 10.65875 32 10 C32.99 10.33 33.98 10.66 35 11 C32.07751315 15.20838106 28.89346746 18.32058513 24 20 C19.60564229 20.62661774 16.37494343 19.87950927 12.63671875 17.48828125 C7.05273819 12.8615545 3.21795109 7.47376042 0 1 C0 0.67 0 0.34 0 0 Z " fill="#A088E3" transform="translate(276,328)"/>
<path d="M0 0 C0.75042068 0.0028299 1.50084137 0.00565979 2.27400208 0.00857544 C4.668508 0.01976188 7.06263856 0.04486322 9.45703125 0.0703125 C11.0813748 0.08034431 12.70572422 0.08946981 14.33007812 0.09765625 C18.31004025 0.11969613 22.28972213 0.1542151 26.26953125 0.1953125 C25.26953125 3.1953125 25.26953125 3.1953125 23.26953125 5.1953125 C22.77453125 4.2053125 22.77453125 4.2053125 22.26953125 3.1953125 C18.14454587 3.16638865 14.0195864 3.14853983 9.89453125 3.1328125 C8.71890625 3.12443359 7.54328125 3.11605469 6.33203125 3.10742188 C5.21054687 3.10419922 4.0890625 3.10097656 2.93359375 3.09765625 C1.8967041 3.09241943 0.85981445 3.08718262 -0.20849609 3.08178711 C-2.72643555 3.02390435 -2.72643555 3.02390435 -4.73046875 4.1953125 C-6.74974386 3.58952997 -8.75300272 2.92611516 -10.73046875 2.1953125 C-7.03888557 -0.26574295 -4.26423321 -0.06044543 0 0 Z " fill="#A289E2" transform="translate(364.73046875,286.8046875)"/>
<path d="M0 0 C3.55160639 6.15611774 3.2876384 13.39162606 3.625 20.3125 C3.6765625 21.23095703 3.728125 22.14941406 3.78125 23.09570312 C3.82507813 23.96775391 3.86890625 24.83980469 3.9140625 25.73828125 C3.9752124 26.92997925 3.9752124 26.92997925 4.03759766 28.14575195 C4 30 4 30 3 31 C2.76807135 32.51469448 2.58784762 34.03754562 2.4375 35.5625 C2.35371094 36.38878906 2.26992188 37.21507812 2.18359375 38.06640625 C2.12300781 38.70449219 2.06242187 39.34257813 2 40 C1.67 40 1.34 40 1 40 C1 29.44 1 18.88 1 8 C0.34 8 -0.32 8 -1 8 C-1.125 2.25 -1.125 2.25 0 0 Z " fill="#9074DF" transform="translate(486,71)"/>
<path d="M0 0 C-7.07801402 3.80237498 -14.95715499 5.24707875 -22.90625 5.7890625 C-25.191665 5.9419216 -25.191665 5.9419216 -28 7 C-29.875 6.625 -29.875 6.625 -32 6 C-33.66519519 5.65939189 -35.33157466 5.32441604 -37 5 C-37 4.67 -37 4.34 -37 4 C-31.06 4 -25.12 4 -19 4 C-19 3.34 -19 2.68 -19 2 C-16.77376199 1.46678738 -14.54384996 0.94889881 -12.3125 0.4375 C-11.07113281 0.14746094 -9.82976562 -0.14257812 -8.55078125 -0.44140625 C-5.23888546 -0.96241956 -3.18139847 -0.91852996 0 0 Z " fill="#A996DD" transform="translate(432,284)"/>
<path d="M0 0 C5.95507399 0.3916035 10.62819824 1.37124595 16 4 C16 4.66 16 5.32 16 6 C17.134375 5.979375 18.26875 5.95875 19.4375 5.9375 C23 6 23 6 24 7 C25.99958364 7.04080783 28.00045254 7.04254356 30 7 C30 7.99 30 8.98 30 10 C23.41971638 9.96836402 17.7267361 8.41592961 11.625 6.125 C10.93535156 5.86831543 10.24570313 5.61163086 9.53515625 5.34716797 C5.96451637 3.95751825 2.91854778 2.49947426 0 0 Z " fill="#A18AE1" transform="translate(175,279)"/>
<path d="M0 0 C5.01083914 2.6720284 9.06939285 5.54430897 13.1875 9.4375 C13.69474609 9.90220703 14.20199219 10.36691406 14.72460938 10.84570312 C17.78766604 13.69422664 20.46941655 16.67219217 23 20 C22.34 20.33 21.68 20.66 21 21 C20.34 20.319375 19.68 19.63875 19 18.9375 C14.7961348 14.7336348 10.24961184 10.89703213 5.70703125 7.06640625 C4.97871094 6.44636719 4.25039063 5.82632812 3.5 5.1875 C2.8296875 4.62417969 2.159375 4.06085937 1.46875 3.48046875 C0 2 0 2 0 0 Z " fill="#A68FE5" transform="translate(446,18)"/>
<path d="M0 0 C0.66 0 1.32 0 2 0 C2.82418321 3.60160696 3.12849722 6.92937088 3.1328125 10.62109375 C3.13474609 11.71188232 3.13667969 12.8026709 3.13867188 13.92651367 C3.13416016 15.08513916 3.12964844 16.24376465 3.125 17.4375 C3.12306641 18.62641846 3.12113281 19.81533691 3.11914062 21.0402832 C3.06632895 32.04491616 2.62203404 43.01443457 2 54 C1.67 54 1.34 54 1 54 C0.67 36.18 0.34 18.36 0 0 Z " fill="#866ECC" transform="translate(487,158)"/>
<path d="M0 0 C2 2 2 2 2.22705078 3.97119141 C2.21657715 4.75671387 2.20610352 5.54223633 2.1953125 6.3515625 C2.18886719 7.20234375 2.18242187 8.053125 2.17578125 8.9296875 C2.15902344 9.81914062 2.14226562 10.70859375 2.125 11.625 C2.11597656 12.5221875 2.10695313 13.419375 2.09765625 14.34375 C2.0740497 16.56276586 2.0411231 18.78125077 2 21 C1.01 21 0.02 21 -1 21 C-1.02888146 17.68751813 -1.04675799 14.37506833 -1.0625 11.0625 C-1.07087891 10.11697266 -1.07925781 9.17144531 -1.08789062 8.19726562 C-1.09111328 7.29814453 -1.09433594 6.39902344 -1.09765625 5.47265625 C-1.10289307 4.64000244 -1.10812988 3.80734863 -1.11352539 2.94946289 C-1 1 -1 1 0 0 Z " fill="#9379DC" transform="translate(488,137)"/>
<path d="M0 0 C0.99 0.33 1.98 0.66 3 1 C-0.16310065 5.55486494 -3.04657634 7.69409588 -8 10 C-11.4375 10.25 -11.4375 10.25 -14 10 C-14.33 9.34 -14.66 8.68 -15 8 C-12.36 8 -9.72 8 -7 8 C-6.67 7.01 -6.34 6.02 -6 5 C-5.360625 4.855625 -4.72125 4.71125 -4.0625 4.5625 C-1.79688294 4.19895007 -1.79688294 4.19895007 -0.75 1.9375 C-0.37875 0.9784375 -0.37875 0.9784375 0 0 Z " fill="#A794E1" transform="translate(308,338)"/>
<path d="M0 0 C0.66 0.99 1.32 1.98 2 3 C0.576875 3.928125 0.576875 3.928125 -0.875 4.875 C-3.94445109 6.81970969 -3.94445109 6.81970969 -6 9 C-8.32275177 9.40047444 -10.65739357 9.7397104 -13 10 C-9.11973109 5.75595588 -4.95745654 2.89082453 0 0 Z " fill="#9C84E2" transform="translate(173,17)"/>
<path d="M0 0 C0.74958984 0.05220703 1.49917969 0.10441406 2.27148438 0.15820312 C4.11887082 0.28763784 5.96574371 0.42436518 7.8125 0.5625 C7.8125 1.2225 7.8125 1.8825 7.8125 2.5625 C4.06300945 3.32944125 1.471841 3.62488932 -2.1875 2.5625 C-3.85367115 2.52186168 -5.52138095 2.519779 -7.1875 2.5625 C-8.1775 2.5625 -9.1675 2.5625 -10.1875 2.5625 C-10.5175 1.9025 -10.8475 1.2425 -11.1875 0.5625 C-7.35939179 -0.71353607 -3.95274893 -0.30033987 0 0 Z " fill="#AC98E1" transform="translate(229.1875,287.4375)"/>
<path d="M0 0 C1.59412284 3.18824568 1.10174735 6.62896662 1.0625 10.125 C1.05798828 10.87910156 1.05347656 11.63320312 1.04882812 12.41015625 C1.03703499 14.27347127 1.01909942 16.13674555 1 18 C0.01 18 -0.98 18 -2 18 C-2 12.39 -2 6.78 -2 1 C-1.34 0.67 -0.68 0.34 0 0 Z " fill="#9277DC" transform="translate(489,115)"/>
<path d="M0 0 C2.8842454 0.34485543 3.8207818 0.78255407 5.703125 3.06640625 C6.21359375 3.89011719 6.7240625 4.71382812 7.25 5.5625 C8.03117188 6.80193359 8.03117188 6.80193359 8.828125 8.06640625 C9.21484375 8.70449219 9.6015625 9.34257812 10 10 C9.34 10.66 8.68 11.32 8 12 C7.03760548 10.75312408 6.08025991 9.50235031 5.125 8.25 C4.59132812 7.55390625 4.05765625 6.8578125 3.5078125 6.140625 C2.10761086 4.15277397 1.02144735 2.20156614 0 0 Z " fill="#A28BE4" transform="translate(140,246)"/>
<path d="M0 0 C-5.68959411 3.0636276 -10.51090534 4.25956379 -17 4 C-15.68 3.67 -14.36 3.34 -13 3 C-13 2.34 -13 1.68 -13 1 C-4.57142857 -1.42857143 -4.57142857 -1.42857143 0 0 Z " fill="#9B83DF" transform="translate(432,284)"/>
<path d="M0 0 C3.5922081 0.58533748 5.37298229 1.96954 8 4.4375 C10.54984814 6.82300246 12.79999762 8.57857037 16 10 C15.67 10.66 15.34 11.32 15 12 C13.24312628 10.94890486 11.49476874 9.88356877 9.75 8.8125 C8.77546875 8.22082031 7.8009375 7.62914062 6.796875 7.01953125 C3.93262591 4.95135139 2.06532698 2.84720076 0 0 Z " fill="#A18CDC" transform="translate(157,266)"/>
<path d="M0 0 C1.91302307 3.26613695 2.35674661 5.99445248 2.625 9.75 C2.69976562 10.73484375 2.77453125 11.7196875 2.8515625 12.734375 C2.92503906 13.85585937 2.92503906 13.85585937 3 15 C2.34 15 1.68 15 1 15 C1 12.69 1 10.38 1 8 C0.34 8 -0.32 8 -1 8 C-1.125 2.25 -1.125 2.25 0 0 Z " fill="#AA95E2" transform="translate(486,71)"/>
<path d="M0 0 C3.21043882 1.38188453 5.04936365 2.92421903 7.25 5.625 C8.03117187 6.57246094 8.03117187 6.57246094 8.828125 7.5390625 C9.40820312 8.26222656 9.40820312 8.26222656 10 9 C9.01 9.495 9.01 9.495 8 10 C6.33333333 8.33333333 4.66666667 6.66666667 3 5 C2.401875 4.443125 1.80375 3.88625 1.1875 3.3125 C0 2 0 2 0 0 Z " fill="#9F85E4" transform="translate(459,29)"/>
<path d="M0 0 C0.66 0 1.32 0 2 0 C0.61482883 3.4340702 -0.65444364 4.70022022 -4 6.25 C-4.70125 6.58515625 -5.4025 6.9203125 -6.125 7.265625 C-8 8 -8 8 -10 8 C-10 7.01 -10 6.02 -10 5 C-9.36191406 4.89042969 -8.72382813 4.78085937 -8.06640625 4.66796875 C-7.24011719 4.50941406 -6.41382813 4.35085938 -5.5625 4.1875 C-4.32693359 3.96126953 -4.32693359 3.96126953 -3.06640625 3.73046875 C-2.38449219 3.48941406 -1.70257813 3.24835938 -1 3 C-0.67 2.01 -0.34 1.02 0 0 Z " fill="#9F88DD" transform="translate(445,275)"/>
<path d="M0 0 C1.62463842 -0.05395478 3.24978541 -0.09277195 4.875 -0.125 C5.77992188 -0.14820313 6.68484375 -0.17140625 7.6171875 -0.1953125 C10 0 10 0 12 2 C7.34462607 2.83796731 3.62921525 3.0161692 -1 2 C-0.67 1.34 -0.34 0.68 0 0 Z " fill="#9075D8" transform="translate(206,287)"/>
<path d="M0 0 C0.33 0 0.66 0 1 0 C1 1.65 1 3.3 1 5 C0.01 5.495 0.01 5.495 -1 6 C-2.12224855 7.88013106 -2.12224855 7.88013106 -3.125 10.0625 C-3.47820312 10.79597656 -3.83140625 11.52945313 -4.1953125 12.28515625 C-4.59363281 13.13400391 -4.59363281 13.13400391 -5 14 C-5.66 13.67 -6.32 13.34 -7 13 C-3.535 6.565 -3.535 6.565 0 0 Z " fill="#A08BDD" transform="translate(143,45)"/>
<path d="M0 0 C5.28 0 10.56 0 16 0 C12.91319799 2.05786801 11.23021852 3.16854962 7.51953125 2.66015625 C6.17955078 2.36431641 6.17955078 2.36431641 4.8125 2.0625 C3.91144531 1.86785156 3.01039063 1.67320312 2.08203125 1.47265625 C1.39496094 1.31667969 0.70789063 1.16070312 0 1 C0 0.67 0 0.34 0 0 Z " fill="#9574E6" transform="translate(229,287)"/>
<path d="M0 0 C-1.625 1.625 -1.625 1.625 -4 3 C-7.25 2.1875 -7.25 2.1875 -10 1 C-6.1496895 -1.56687367 -4.41430237 -0.83288724 0 0 Z " fill="#A891E7" transform="translate(364,288)"/>
<path d="M0 0 C0.33 0.99 0.66 1.98 1 3 C-1.64 5.31 -4.28 7.62 -7 10 C-7.66 9.67 -8.32 9.34 -9 9 C-6.03 6.03 -3.06 3.06 0 0 Z " fill="#AE9BE2" transform="translate(159,27)"/>
<path d="M0 0 C-0.33 0.99 -0.66 1.98 -1 3 C-3.875 3.625 -3.875 3.625 -7 4 C-7.66 3.34 -8.32 2.68 -9 2 C-3.375 0 -3.375 0 0 0 Z " fill="#A790E6" transform="translate(194,9)"/>
<path d="M0 0 C0.99 0.33 1.98 0.66 3 1 C2.34 3.31 1.68 5.62 1 8 C0.01 8 -0.98 8 -2 8 C-1.34 5.36 -0.68 2.72 0 0 Z " fill="#9C83E5" transform="translate(483,227)"/>
<path d="M0 0 C0.33 0 0.66 0 1 0 C1.19627391 1.58226965 1.38165538 3.16589271 1.5625 4.75 C1.66691406 5.63171875 1.77132813 6.5134375 1.87890625 7.421875 C1.99456676 9.88432451 1.73638695 11.66538064 1 14 C0.34 14 -0.32 14 -1 14 C-0.67 9.38 -0.34 4.76 0 0 Z " fill="#866BCF" transform="translate(488,102)"/>
<path d="M0 0 C-0.66 0.66 -1.32 1.32 -2 2 C-4.1640625 1.7578125 -4.1640625 1.7578125 -6.625 1.125 C-7.44226563 0.92132813 -8.25953125 0.71765625 -9.1015625 0.5078125 C-9.72804688 0.34023437 -10.35453125 0.17265625 -11 0 C-6.80715834 -2.50457356 -4.54961843 -1.57486792 0 0 Z " fill="#A288E7" transform="translate(436,12)"/>
<path d="M0 0 C2.97 0.33 5.94 0.66 9 1 C8.67 1.99 8.34 2.98 8 4 C2.25 2.25 2.25 2.25 0 0 Z " fill="#A58EE2" transform="translate(175,279)"/>
<path d="M0 0 C1.32 0.33 2.64 0.66 4 1 C4 2.65 4 4.3 4 6 C4.66 6 5.32 6 6 6 C5.67 6.99 5.34 7.98 5 9 C2.67527795 6.14693203 1.2491742 3.45925163 0 0 Z " fill="#9B84DE" transform="translate(135,236)"/>
<path d="M0 0 C2.46800047 1.15173355 4.04783565 2.04783565 6 4 C5.625 6.125 5.625 6.125 5 8 C0 2.25 0 2.25 0 0 Z " fill="#947AE0" transform="translate(149,257)"/>
<path d="M0 0 C0.99 0 1.98 0 3 0 C1.92598892 2.91517292 1.22189824 4.77810176 -1 7 C-2 4 -2 4 -1.0625 1.8125 C-0.5365625 0.9153125 -0.5365625 0.9153125 0 0 Z " fill="#A28AE2" transform="translate(479,238)"/>
<path d="M0 0 C0.33 0 0.66 0 1 0 C1 1.98 1 3.96 1 6 C0.34 6 -0.32 6 -1 6 C-1.33 6.99 -1.66 7.98 -2 9 C-2.125 5.625 -2.125 5.625 -2 2 C-1.34 1.34 -0.68 0.68 0 0 Z " fill="#A690E7" transform="translate(131,208)"/>
<path d="M0 0 C-2.91708924 1.98362069 -4.12380904 1.9876191 -7.75 1.625 C-8.8225 1.41875 -9.895 1.2125 -11 1 C-7.2297564 -1.56376565 -4.32597804 -0.83191885 0 0 Z " fill="#AD98E8" transform="translate(253,289)"/>
<path d="M0 0 C0.99 0.33 1.98 0.66 3 1 C3.33 2.98 3.66 4.96 4 7 C3.01 7.495 3.01 7.495 2 8 C1.34 5.36 0.68 2.72 0 0 Z " fill="#A58FE6" transform="translate(132,227)"/>
<path d="M0 0 C0.66 0.33 1.32 0.66 2 1 C1.74438677 3.3431213 1.40729228 5.67843403 1 8 C0.01 8.495 0.01 8.495 -1 9 C-2.0326802 6.21176345 -2.04509293 5.1322726 -1.0625 2.25 C-0.711875 1.5075 -0.36125 0.765 0 0 Z " fill="#A48DE6" transform="translate(135,60)"/>
<path d="M0 0 C2.97 0.495 2.97 0.495 6 1 C6 1.33 6 1.66 6 2 C4.02 2 2.04 2 0 2 C0 1.34 0 0.68 0 0 Z " fill="#FEFDFE" transform="translate(199,289)"/>
<path d="M0 0 C0.99 0.33 1.98 0.66 3 1 C2.01 1.33 1.02 1.66 0 2 C0 1.34 0 0.68 0 0 Z " fill="#FEFEFF" transform="translate(414,290)"/>
<path d="M0 0 C0.66 0.66 1.32 1.32 2 2 C1.01 1.67 0.02 1.34 -1 1 C-0.67 0.67 -0.34 0.34 0 0 Z " fill="#FEFEFF" transform="translate(391,290)"/>
<path d="M0 0 C0.33 0.66 0.66 1.32 1 2 C0.01 1.67 -0.98 1.34 -2 1 C-1.34 0.67 -0.68 0.34 0 0 Z " fill="#FEFEFF" transform="translate(400,290)"/>
<path d="" fill="#FFFFFF" transform="translate(0,0)"/>
<path d="" fill="#FFFFFF" transform="translate(0,0)"/>
<path d="M0 0 C3 1 3 1 3 1 Z " fill="#FEFEFF" transform="translate(380,291)"/>
<path d="M0 0 C0.99 0.495 0.99 0.495 2 1 C1.01 1.495 1.01 1.495 0 2 C0 1.34 0 0.68 0 0 Z " fill="#FEFDFE" transform="translate(358,291)"/>
<path d="M0 0 C0.66 0.66 1.32 1.32 2 2 C1.34 2 0.68 2 0 2 C0 1.34 0 0.68 0 0 Z " fill="#FFFEFF" transform="translate(137,244)"/>
<path d="M0 0 C0.66 0.66 1.32 1.32 2 2 C1.34 2 0.68 2 0 2 C0 1.34 0 0.68 0 0 Z " fill="#FEFDFF" transform="translate(135,241)"/>
<path d="" fill="#FEFEFF" transform="translate(0,0)"/>
<path d="M0 0 C3 1 3 1 3 1 Z " fill="#FEFEFF" transform="translate(196,6)"/>
<path d="" fill="#FFFFFF" transform="translate(0,0)"/>
<path d="M0 0 C2 1 2 1 2 1 Z " fill="#FFFFFF" transform="translate(209,562)"/>
<path d="" fill="#FFFFFF" transform="translate(0,0)"/>
<path d="" fill="#FFFFFF" transform="translate(0,0)"/>
<path d="" fill="#FFFFFF" transform="translate(0,0)"/>
<path d="" fill="#FFFFFF" transform="translate(0,0)"/>
<path d="M0 0 C2 1 2 1 2 1 Z " fill="#FFFFFF" transform="translate(513,468)"/>
<path d="" fill="#FFFFFF" transform="translate(0,0)"/>
<path d="M0 0 C2 1 2 1 2 1 Z " fill="#FEFEFF" transform="translate(277,334)"/>
<path d="M0 0 C2 1 2 1 2 1 Z " fill="#FEFEFF" transform="translate(229,291)"/>
<path d="M0 0 C2 1 2 1 2 1 Z " fill="#FFFEFF" transform="translate(222,291)"/>
<path d="M0 0 C2 1 2 1 2 1 Z " fill="#FEFEFF" transform="translate(419,289)"/>
<path d="M0 0 C2 1 2 1 2 1 Z " fill="#FFFEFF" transform="translate(196,289)"/>
<path d="" fill="#FEFEFF" transform="translate(0,0)"/>
<path d="M0 0 C2 1 2 1 2 1 Z " fill="#FFFEFF" transform="translate(474,40)"/>
<path d="" fill="#FFFEFF" transform="translate(0,0)"/>
<path d="M0 0 C2 1 2 1 2 1 Z " fill="#FEFDFF" transform="translate(174,14)"/>
<path d="" fill="#FFFFFF" transform="translate(0,0)"/>
<path d="" fill="#FFFFFF" transform="translate(0,0)"/>
<path d="" fill="#FFFFFF" transform="translate(0,0)"/>
<path d="" fill="#FFFFFF" transform="translate(0,0)"/>
<path d="" fill="#FFFFFF" transform="translate(0,0)"/>
<path d="" fill="#FFFFFF" transform="translate(0,0)"/>
<path d="" fill="#FFFFFF" transform="translate(0,0)"/>
<path d="" fill="#FFFFFF" transform="translate(0,0)"/>
<path d="" fill="#FFFFFF" transform="translate(0,0)"/>
<path d="" fill="#FFFFFF" transform="translate(0,0)"/>
<path d="" fill="#FFFFFF" transform="translate(0,0)"/>
<path d="" fill="#FFFFFF" transform="translate(0,0)"/>
<path d="" fill="#FFFFFF" transform="translate(0,0)"/>
<path d="" fill="#FFFFFF" transform="translate(0,0)"/>
<path d="" fill="#FFFFFF" transform="translate(0,0)"/>
<path d="" fill="#FFFFFF" transform="translate(0,0)"/>
<path d="" fill="#FFFFFF" transform="translate(0,0)"/>
<path d="" fill="#FFFFFF" transform="translate(0,0)"/>
<path d="" fill="#FFFFFF" transform="translate(0,0)"/>
<path d="" fill="#FFFFFF" transform="translate(0,0)"/>
<path d="" fill="#FFFFFF" transform="translate(0,0)"/>
<path d="" fill="#FFFFFF" transform="translate(0,0)"/>
<path d="" fill="#FFFFFF" transform="translate(0,0)"/>
<path d="" fill="#FFFFFF" transform="translate(0,0)"/>
<path d="" fill="#FFFFFF" transform="translate(0,0)"/>
<path d="" fill="#FFFFFF" transform="translate(0,0)"/>
<path d="" fill="#FFFFFF" transform="translate(0,0)"/>
<path d="" fill="#FFFFFF" transform="translate(0,0)"/>
<path d="" fill="#FFFFFF" transform="translate(0,0)"/>
<path d="" fill="#FFFFFF" transform="translate(0,0)"/>
<path d="" fill="#FFFFFF" transform="translate(0,0)"/>
<path d="" fill="#FFFFFF" transform="translate(0,0)"/>
<path d="" fill="#FFFFFF" transform="translate(0,0)"/>
<path d="" fill="#FFFFFF" transform="translate(0,0)"/>
<path d="" fill="#FFFFFF" transform="translate(0,0)"/>
<path d="" fill="#FFFFFF" transform="translate(0,0)"/>
<path d="" fill="#FFFFFF" transform="translate(0,0)"/>
<path d="" fill="#FFFFFF" transform="translate(0,0)"/>
<path d="" fill="#FFFFFF" transform="translate(0,0)"/>
<path d="" fill="#FFFFFF" transform="translate(0,0)"/>
<path d="" fill="#FFFFFF" transform="translate(0,0)"/>
<path d="" fill="#FFFFFF" transform="translate(0,0)"/>
<path d="" fill="#FFFFFF" transform="translate(0,0)"/>
<path d="" fill="#FFFFFF" transform="translate(0,0)"/>
<path d="" fill="#FFFFFF" transform="translate(0,0)"/>
<path d="" fill="#FFFFFF" transform="translate(0,0)"/>
<path d="" fill="#FFFFFF" transform="translate(0,0)"/>
<path d="" fill="#FFFFFF" transform="translate(0,0)"/>
<path d="" fill="#FFFFFF" transform="translate(0,0)"/>
<path d="" fill="#FFFFFF" transform="translate(0,0)"/>
<path d="" fill="#FFFFFF" transform="translate(0,0)"/>
<path d="" fill="#FFFFFF" transform="translate(0,0)"/>
<path d="" fill="#FFFFFF" transform="translate(0,0)"/>
<path d="" fill="#FFFFFF" transform="translate(0,0)"/>
<path d="" fill="#FFFFFF" transform="translate(0,0)"/>
<path d="" fill="#FFFFFF" transform="translate(0,0)"/>
<path d="" fill="#FFFFFF" transform="translate(0,0)"/>
<path d="" fill="#FFFFFF" transform="translate(0,0)"/>
<path d="" fill="#FFFFFF" transform="translate(0,0)"/>
<path d="" fill="#FFFFFF" transform="translate(0,0)"/>
<path d="" fill="#FFFFFF" transform="translate(0,0)"/>
<path d="" fill="#FFFFFF" transform="translate(0,0)"/>
<path d="" fill="#FFFFFF" transform="translate(0,0)"/>
<path d="" fill="#FFFFFF" transform="translate(0,0)"/>
<path d="" fill="#FFFFFF" transform="translate(0,0)"/>
<path d="" fill="#FFFFFF" transform="translate(0,0)"/>
<path d="" fill="#FFFFFF" transform="translate(0,0)"/>
<path d="" fill="#FFFFFF" transform="translate(0,0)"/>
<path d="" fill="#FFFFFF" transform="translate(0,0)"/>
<path d="" fill="#FFFFFF" transform="translate(0,0)"/>
<path d="" fill="#FFFFFF" transform="translate(0,0)"/>
<path d="" fill="#FFFFFF" transform="translate(0,0)"/>
<path d="" fill="#FFFFFF" transform="translate(0,0)"/>
<path d="" fill="#FFFFFF" transform="translate(0,0)"/>
<path d="" fill="#FFFFFF" transform="translate(0,0)"/>
<path d="" fill="#FFFFFF" transform="translate(0,0)"/>
<path d="" fill="#FFFFFF" transform="translate(0,0)"/>
<path d="" fill="#FFFFFF" transform="translate(0,0)"/>
<path d="" fill="#FFFFFF" transform="translate(0,0)"/>
<path d="" fill="#FFFFFF" transform="translate(0,0)"/>
<path d="" fill="#FFFFFF" transform="translate(0,0)"/>
<path d="" fill="#FFFFFF" transform="translate(0,0)"/>
<path d="" fill="#FFFFFF" transform="translate(0,0)"/>
<path d="" fill="#FFFFFF" transform="translate(0,0)"/>
<path d="" fill="#FFFFFF" transform="translate(0,0)"/>
<path d="" fill="#FFFFFF" transform="translate(0,0)"/>
<path d="" fill="#FFFFFF" transform="translate(0,0)"/>
<path d="" fill="#FFFFFF" transform="translate(0,0)"/>
<path d="" fill="#FFFFFF" transform="translate(0,0)"/>
<path d="" fill="#FFFFFF" transform="translate(0,0)"/>
<path d="" fill="#FFFFFF" transform="translate(0,0)"/>
<path d="" fill="#FFFFFF" transform="translate(0,0)"/>
<path d="" fill="#FFFFFF" transform="translate(0,0)"/>
<path d="" fill="#FDFCFE" transform="translate(0,0)"/>
<path d="" fill="#FFFFFF" transform="translate(0,0)"/>
<path d="" fill="#FEFEFF" transform="translate(0,0)"/>
<path d="" fill="#FFFEFF" transform="translate(0,0)"/>
<path d="" fill="#FFFFFF" transform="translate(0,0)"/>
<path d="" fill="#FFFEFF" transform="translate(0,0)"/>
<path d="" fill="#FFFEFF" transform="translate(0,0)"/>
<path d="" fill="#FFFEFF" transform="translate(0,0)"/>
<path d="" fill="#FFFEFF" transform="translate(0,0)"/>
<path d="" fill="#FFFEFF" transform="translate(0,0)"/>
<path d="" fill="#FFFEFF" transform="translate(0,0)"/>
<path d="" fill="#FFFEFF" transform="translate(0,0)"/>
<path d="" fill="#FFFEFF" transform="translate(0,0)"/>
<path d="" fill="#FFFEFF" transform="translate(0,0)"/>
<path d="" fill="#FFFEFF" transform="translate(0,0)"/>
<path d="" fill="#FEFEFF" transform="translate(0,0)"/>
<path d="" fill="#FEFEFF" transform="translate(0,0)"/>
<path d="" fill="#FFFEFF" transform="translate(0,0)"/>
<path d="" fill="#FFFEFF" transform="translate(0,0)"/>
<path d="" fill="#FFFEFF" transform="translate(0,0)"/>
<path d="" fill="#FFFEFF" transform="translate(0,0)"/>
<path d="" fill="#FEFDFF" transform="translate(0,0)"/>
<path d="" fill="#FFFEFF" transform="translate(0,0)"/>
<path d="" fill="#FFFEFF" transform="translate(0,0)"/>
<path d="" fill="#FFFEFF" transform="translate(0,0)"/>
<path d="" fill="#FEFEFF" transform="translate(0,0)"/>
<path d="" fill="#FFFEFF" transform="translate(0,0)"/>
<path d="" fill="#FEFDFF" transform="translate(0,0)"/>
<path d="" fill="#FFFEFF" transform="translate(0,0)"/>
<path d="" fill="#FFFEFF" transform="translate(0,0)"/>
<path d="" fill="#FFFEFF" transform="translate(0,0)"/>
<path d="" fill="#FFFEFF" transform="translate(0,0)"/>
<path d="" fill="#FFFEFF" transform="translate(0,0)"/>
<path d="" fill="#FFFEFF" transform="translate(0,0)"/>
<path d="" fill="#FFFEFF" transform="translate(0,0)"/>
<path d="" fill="#FFFEFF" transform="translate(0,0)"/>
<path d="" fill="#FEFEFE" transform="translate(0,0)"/>
<path d="" fill="#FEFEFE" transform="translate(0,0)"/>
<path d="" fill="#FFFEFF" transform="translate(0,0)"/>
<path d="" fill="#FEFEFF" transform="translate(0,0)"/>
<path d="" fill="#FFFFFF" transform="translate(0,0)"/>
<path d="" fill="#FFFEFF" transform="translate(0,0)"/>
<path d="" fill="#FEFEFF" transform="translate(0,0)"/>
<path d="" fill="#FEFEFF" transform="translate(0,0)"/>
<path d="" fill="#FFFEFF" transform="translate(0,0)"/>
<path d="" fill="#FEFDFF" transform="translate(0,0)"/>
<path d="" fill="#FFFEFF" transform="translate(0,0)"/>
<path d="" fill="#FFFEFF" transform="translate(0,0)"/>
<path d="" fill="#FEFEFF" transform="translate(0,0)"/>
<path d="" fill="#FFFEFF" transform="translate(0,0)"/>
<path d="" fill="#FFFEFF" transform="translate(0,0)"/>
<path d="" fill="#FEFEFE" transform="translate(0,0)"/>
<path d="" fill="#FEFEFE" transform="translate(0,0)"/>
<path d="" fill="#FEFEFF" transform="translate(0,0)"/>
<path d="" fill="#FEFEFF" transform="translate(0,0)"/>
<path d="" fill="#FEFEFE" transform="translate(0,0)"/>
<path d="" fill="#FEFEFE" transform="translate(0,0)"/>
<path d="" fill="#FFFEFF" transform="translate(0,0)"/>
<path d="" fill="#FEFEFE" transform="translate(0,0)"/>
<path d="" fill="#FFFEFF" transform="translate(0,0)"/>
<path d="" fill="#FFFEFF" transform="translate(0,0)"/>
<path d="" fill="#FEFEFE" transform="translate(0,0)"/>
<path d="" fill="#FFFEFF" transform="translate(0,0)"/>
<path d="" fill="#FFFEFF" transform="translate(0,0)"/>
<path d="" fill="#FEFEFE" transform="translate(0,0)"/>
<path d="" fill="#FFFEFF" transform="translate(0,0)"/>
<path d="" fill="#FEFEFF" transform="translate(0,0)"/>
<path d="" fill="#FEFEFF" transform="translate(0,0)"/>
<path d="" fill="#FEFEFF" transform="translate(0,0)"/>
<path d="" fill="#FFFEFF" transform="translate(0,0)"/>
<path d="" fill="#FEFEFF" transform="translate(0,0)"/>
<path d="" fill="#FEFEFF" transform="translate(0,0)"/>
<path d="" fill="#FEFEFE" transform="translate(0,0)"/>
<path d="" fill="#FFFEFF" transform="translate(0,0)"/>
<path d="" fill="#FFFEFF" transform="translate(0,0)"/>
<path d="" fill="#FFFEFF" transform="translate(0,0)"/>
<path d="" fill="#FEFEFF" transform="translate(0,0)"/>
<path d="" fill="#FEFEFE" transform="translate(0,0)"/>
<path d="" fill="#FEFEFF" transform="translate(0,0)"/>
<path d="" fill="#FEFEFF" transform="translate(0,0)"/>
<path d="" fill="#FEFEFF" transform="translate(0,0)"/>
<path d="" fill="#FEFEFE" transform="translate(0,0)"/>
<path d="" fill="#FEFEFE" transform="translate(0,0)"/>
<path d="" fill="#FEFEFE" transform="translate(0,0)"/>
<path d="" fill="#FEFEFE" transform="translate(0,0)"/>
<path d="" fill="#FFFEFF" transform="translate(0,0)"/>
<path d="" fill="#FEFEFE" transform="translate(0,0)"/>
<path d="" fill="#FEFEFF" transform="translate(0,0)"/>
<path d="" fill="#FEFEFE" transform="translate(0,0)"/>
<path d="" fill="#FFFEFF" transform="translate(0,0)"/>
<path d="" fill="#FEFEFE" transform="translate(0,0)"/>
<path d="" fill="#FFFEFF" transform="translate(0,0)"/>
<path d="" fill="#FEFEFF" transform="translate(0,0)"/>
<path d="" fill="#FEFEFE" transform="translate(0,0)"/>
<path d="" fill="#FEFEFF" transform="translate(0,0)"/>
<path d="" fill="#FEFEFF" transform="translate(0,0)"/>
<path d="" fill="#FEFEFF" transform="translate(0,0)"/>
<path d="" fill="#FEFEFE" transform="translate(0,0)"/>
<path d="" fill="#FEFEFF" transform="translate(0,0)"/>
<path d="" fill="#FFFEFF" transform="translate(0,0)"/>
<path d="" fill="#FFFEFF" transform="translate(0,0)"/>
<path d="" fill="#FEFEFF" transform="translate(0,0)"/>
<path d="" fill="#FEFEFF" transform="translate(0,0)"/>
<path d="" fill="#FEFEFF" transform="translate(0,0)"/>
<path d="" fill="#FEFEFE" transform="translate(0,0)"/>
<path d="" fill="#FEFEFE" transform="translate(0,0)"/>
<path d="" fill="#FEFEFE" transform="translate(0,0)"/>
<path d="" fill="#FEFEFF" transform="translate(0,0)"/>
<path d="" fill="#FEFEFF" transform="translate(0,0)"/>
<path d="" fill="#FEFEFF" transform="translate(0,0)"/>
<path d="" fill="#FEFEFE" transform="translate(0,0)"/>
<path d="" fill="#FEFEFE" transform="translate(0,0)"/>
<path d="" fill="#FEFEFE" transform="translate(0,0)"/>
<path d="" fill="#FEFEFE" transform="translate(0,0)"/>
<path d="" fill="#FEFEFE" transform="translate(0,0)"/>
<path d="" fill="#FEFEFF" transform="translate(0,0)"/>
<path d="" fill="#FEFEFF" transform="translate(0,0)"/>
<path d="" fill="#FEFEFF" transform="translate(0,0)"/>
<path d="" fill="#FEFEFF" transform="translate(0,0)"/>
<path d="" fill="#FFFEFF" transform="translate(0,0)"/>
<path d="" fill="#FEFEFF" transform="translate(0,0)"/>
<path d="" fill="#FEFEFF" transform="translate(0,0)"/>
<path d="" fill="#FEFEFF" transform="translate(0,0)"/>
<path d="" fill="#FEFEFF" transform="translate(0,0)"/>
<path d="" fill="#FEFEFF" transform="translate(0,0)"/>
<path d="" fill="#FEFEFF" transform="translate(0,0)"/>
<path d="" fill="#FEFEFE" transform="translate(0,0)"/>
<path d="" fill="#FEFEFE" transform="translate(0,0)"/>
<path d="" fill="#FEFEFE" transform="translate(0,0)"/>
<path d="" fill="#FEFEFF" transform="translate(0,0)"/>
<path d="" fill="#FFFEFF" transform="translate(0,0)"/>
<path d="" fill="#FEFEFF" transform="translate(0,0)"/>
<path d="" fill="#FEFEFF" transform="translate(0,0)"/>
<path d="" fill="#FEFEFE" transform="translate(0,0)"/>
<path d="" fill="#FEFEFE" transform="translate(0,0)"/>
<path d="" fill="#FEFEFE" transform="translate(0,0)"/>
<path d="" fill="#FEFEFE" transform="translate(0,0)"/>
<path d="" fill="#FEFEFE" transform="translate(0,0)"/>
<path d="" fill="#FEFEFE" transform="translate(0,0)"/>
<path d="" fill="#FEFEFE" transform="translate(0,0)"/>
<path d="" fill="#FEFEFE" transform="translate(0,0)"/>
<path d="" fill="#FEFEFF" transform="translate(0,0)"/>
<path d="" fill="#FEFEFE" transform="translate(0,0)"/>
<path d="" fill="#FEFEFE" transform="translate(0,0)"/>
<path d="" fill="#FEFEFF" transform="translate(0,0)"/>
<path d="" fill="#FEFEFE" transform="translate(0,0)"/>
<path d="" fill="#FEFDFE" transform="translate(0,0)"/>
<path d="" fill="#FFFEFF" transform="translate(0,0)"/>
<path d="" fill="#FFFEFF" transform="translate(0,0)"/>
<path d="" fill="#FFFEFF" transform="translate(0,0)"/>
<path d="" fill="#FEFEFF" transform="translate(0,0)"/>
<path d="" fill="#FFFEFF" transform="translate(0,0)"/>
<path d="" fill="#FFFEFF" transform="translate(0,0)"/>
<path d="" fill="#FEFEFE" transform="translate(0,0)"/>
<path d="" fill="#FEFEFE" transform="translate(0,0)"/>
<path d="" fill="#FEFEFE" transform="translate(0,0)"/>
<path d="" fill="#FEFEFF" transform="translate(0,0)"/>
<path d="" fill="#FEFEFF" transform="translate(0,0)"/>
<path d="" fill="#FEFEFE" transform="translate(0,0)"/>
<path d="" fill="#FEFEFF" transform="translate(0,0)"/>
<path d="" fill="#FEFEFE" transform="translate(0,0)"/>
<path d="" fill="#FEFEFE" transform="translate(0,0)"/>
<path d="" fill="#FEFEFE" transform="translate(0,0)"/>
<path d="" fill="#FEFEFE" transform="translate(0,0)"/>
<path d="" fill="#FEFEFE" transform="translate(0,0)"/>
<path d="" fill="#FEFEFE" transform="translate(0,0)"/>
<path d="" fill="#FEFEFE" transform="translate(0,0)"/>
<path d="" fill="#FFFEFF" transform="translate(0,0)"/>
<path d="" fill="#FEFEFE" transform="translate(0,0)"/>
<path d="" fill="#FEFEFE" transform="translate(0,0)"/>
<path d="" fill="#FFFEFF" transform="translate(0,0)"/>
<path d="" fill="#FFFEFF" transform="translate(0,0)"/>
<path d="" fill="#FFFEFF" transform="translate(0,0)"/>
<path d="" fill="#FEFEFF" transform="translate(0,0)"/>
<path d="" fill="#FEFEFF" transform="translate(0,0)"/>
<path d="" fill="#FEFDFF" transform="translate(0,0)"/>
<path d="" fill="#FEFEFF" transform="translate(0,0)"/>
<path d="" fill="#FEFEFE" transform="translate(0,0)"/>
<path d="" fill="#FEFEFE" transform="translate(0,0)"/>
<path d="" fill="#FEFEFE" transform="translate(0,0)"/>
<path d="" fill="#FEFEFE" transform="translate(0,0)"/>
<path d="" fill="#FEFEFE" transform="translate(0,0)"/>
<path d="" fill="#FFFEFF" transform="translate(0,0)"/>
<path d="" fill="#FEFEFF" transform="translate(0,0)"/>
<path d="" fill="#FDFDFE" transform="translate(0,0)"/>
<path d="" fill="#FEFEFF" transform="translate(0,0)"/>
<path d="" fill="#FEFEFE" transform="translate(0,0)"/>
<path d="" fill="#FEFEFE" transform="translate(0,0)"/>
<path d="" fill="#FEFEFE" transform="translate(0,0)"/>
<path d="" fill="#FEFEFF" transform="translate(0,0)"/>
<path d="" fill="#FFFEFF" transform="translate(0,0)"/>
<path d="" fill="#FFFEFF" transform="translate(0,0)"/>
<path d="" fill="#FEFEFF" transform="translate(0,0)"/>
<path d="" fill="#FFFEFF" transform="translate(0,0)"/>
<path d="" fill="#FFFEFF" transform="translate(0,0)"/>
<path d="" fill="#FEFEFF" transform="translate(0,0)"/>
<path d="" fill="#FEFEFF" transform="translate(0,0)"/>
<path d="" fill="#FEFEFF" transform="translate(0,0)"/>
<path d="" fill="#FEFEFF" transform="translate(0,0)"/>
<path d="" fill="#FEFEFE" transform="translate(0,0)"/>
<path d="" fill="#FEFEFE" transform="translate(0,0)"/>
<path d="" fill="#FEFEFE" transform="translate(0,0)"/>
<path d="" fill="#FEFEFF" transform="translate(0,0)"/>
<path d="" fill="#FEFEFF" transform="translate(0,0)"/>
<path d="" fill="#FEFEFE" transform="translate(0,0)"/>
<path d="" fill="#FFFEFF" transform="translate(0,0)"/>
<path d="" fill="#FFFEFF" transform="translate(0,0)"/>
<path d="" fill="#FFFEFF" transform="translate(0,0)"/>
<path d="" fill="#FFFEFF" transform="translate(0,0)"/>
<path d="" fill="#FFFEFF" transform="translate(0,0)"/>
<path d="" fill="#FFFEFF" transform="translate(0,0)"/>
<path d="" fill="#FEFEFE" transform="translate(0,0)"/>
<path d="" fill="#FFFEFF" transform="translate(0,0)"/>
<path d="" fill="#FEFEFF" transform="translate(0,0)"/>
</svg>
